<?xml version="1.0" standalone="no"?>
<!DOCTYPE svg PUBLIC "-//W3C//DTD SVG 20010904//EN"
 "http://www.w3.org/TR/2001/REC-SVG-20010904/DTD/svg10.dtd">
<svg version="1.0" xmlns="http://www.w3.org/2000/svg"
 width="466.000000pt" height="538.000000pt" viewBox="0 0 366.000000 238.000000"
 preserveAspectRatio="xMidYMid meet">

<g transform="translate(0.000000,238.000000) scale(0.100000,-0.100000)"
fill="#FFFFFF" stroke="none">
<path d="M2620 2353 c-63 -5 -179 -29 -365 -74 -193 -48 -362 -79 -424 -79
-66 0 -196 24 -431 80 -113 27 -240 54 -282 61 -107 16 -267 7 -342 -19 -276
-100 -500 -457 -620 -992 -64 -281 -80 -421 -80 -665 0 -183 3 -222 23 -302
86 -351 356 -413 726 -166 106 71 174 125 319 250 112 98 194 146 311 182 215
67 535 67 750 0 117 -36 199 -84 311 -182 221 -191 374 -298 512 -356 81 -34
94 -36 192 -36 121 0 159 13 226 80 50 50 87 124 115 230 19 70 22 107 22 300
0 159 -4 253 -17 340 -81 557 -244 969 -468 1180 -136 130 -288 183 -478 168z
m-1479 -178 c46 -8 157 -32 245 -55 249 -62 318 -73 444 -73 122 0 182 9 425
68 83 20 179 42 215 50 275 58 448 3 594 -188 162 -213 279 -558 342 -1012 23
-166 23 -455 0 -550 -31 -127 -71 -185 -142 -205 -122 -34 -339 83 -631 341
-59 52 -129 109 -154 127 -82 55 -211 106 -349 137 -100 22 -391 31 -502 16
-212 -30 -416 -112 -538 -214 -36 -30 -105 -89 -155 -131 -188 -159 -340 -248
-458 -269 -58 -9 -68 -8 -108 11 -76 37 -112 118 -130 292 -24 233 23 613 116
934 125 432 309 680 538 725 67 14 158 12 248 -4z"/>
<path d="M931 1901 c-69 -24 -125 -80 -156 -156 -20 -51 -29 -61 -54 -66 -50
-10 -119 -57 -149 -102 -55 -80 -61 -181 -17 -267 31 -60 134 -130 192 -130 6
0 15 -15 18 -32 26 -119 126 -197 251 -198 113 0 214 76 244 186 10 36 16 42
53 52 60 16 102 45 137 93 79 109 61 255 -42 344 -24 20 -63 42 -87 48 -27 7
-47 19 -51 32 -5 11 -14 36 -21 55 -46 121 -192 186 -318 141z m131 -152 c27
-15 48 -69 48 -127 0 -70 27 -93 121 -101 84 -8 109 -29 109 -91 0 -30 -6 -44
-31 -64 -25 -22 -41 -26 -90 -26 -81 0 -109 -26 -109 -100 0 -56 -20 -104 -49
-120 -33 -17 -78 -11 -107 14 -24 20 -28 32 -32 92 -6 94 -21 110 -115 117
-61 4 -74 8 -94 31 -28 33 -30 85 -4 117 15 19 32 24 90 30 99 9 117 27 123
121 3 62 7 73 31 94 30 26 75 31 109 13z"/>
<path d="M2560 1893 c-63 -12 -120 -85 -120 -154 0 -72 79 -149 153 -149 81 0
149 68 149 150 0 101 -83 171 -182 153z"/>
<path d="M2237 1575 c-75 -26 -112 -81 -105 -155 11 -110 120 -172 218 -122
52 26 80 74 80 138 0 48 -4 58 -36 94 -20 22 -48 43 -63 46 -14 3 -33 7 -41 9
-8 2 -32 -2 -53 -10z"/>
<path d="M2873 1579 c-178 -37 -148 -299 34 -299 78 0 147 70 147 147 -1 105
-82 173 -181 152z"/>
<path d="M2510 1248 c-125 -84 -67 -278 83 -278 136 0 201 161 103 258 -30 31
-43 36 -93 40 -49 3 -64 0 -93 -20z"/>
</g>
</svg>
