<svg version="1.1" id="Layer_1" xmlns="http://www.w3.org/2000/svg" xmlns:xlink="http://www.w3.org/1999/xlink" x="0px" y="0px"
	 width="100%" viewBox="0 0 1024 912" enable-background="new 0 0 1024 912" xml:space="preserve">
<path fill="#000000" opacity="1.000000" stroke="none" 
	d="
M205.332642,190.246063 
	C229.864990,177.004181 255.780685,170.320602 283.230652,170.842682 
	C316.808441,171.481323 346.519867,183.343048 372.957977,203.817749 
	C383.398224,211.903061 393.301361,220.543961 401.467987,230.980774 
	C406.051208,236.837967 411.849457,239.154190 419.271088,239.120148 
	C458.929260,238.938293 498.589050,238.910294 538.247131,239.090027 
	C546.378723,239.126862 552.322815,236.410095 557.703308,230.131668 
	C579.290649,204.941620 605.536194,186.178604 637.543457,176.734024 
	C662.509827,169.367081 687.809814,169.038025 713.396301,175.198090 
	C749.678162,183.933121 778.952026,203.013611 801.834412,232.190308 
	C816.362305,250.714417 825.316528,271.865448 830.722290,294.666016 
	C834.936096,312.439026 839.611755,330.094482 843.672119,347.914185 
	C848.276672,368.122345 852.417480,388.405914 856.534180,408.712494 
	C860.264709,427.114227 863.308472,445.635468 865.626770,464.204590 
	C870.226990,501.052765 873.060852,538.083130 870.227539,575.264465 
	C868.454712,598.529053 864.909119,621.483948 856.255005,643.372437 
	C845.751892,669.937683 829.770935,691.866455 803.506104,704.778564 
	C765.988159,723.222717 729.512207,720.917664 694.599609,698.021484 
	C668.166138,680.686096 648.864990,656.530151 631.751465,630.437988 
	C625.537292,620.963623 619.729431,611.240723 614.424011,601.226318 
	C613.164795,598.849609 611.748413,597.458313 608.652100,597.518188 
	C576.502258,598.139648 548.266724,587.646851 523.750671,567.011108 
	C521.279297,564.930969 518.818176,564.044434 515.625671,564.054382 
	C491.464050,564.129456 467.301727,564.123535 443.140381,563.998901 
	C439.587250,563.980591 436.928558,565.035156 434.164368,567.331604 
	C410.417053,587.060608 383.294006,597.860291 352.144379,597.326416 
	C347.681152,597.249878 345.323395,598.817261 343.191376,602.700317 
	C328.069244,630.241699 310.928528,656.367065 288.268433,678.454895 
	C274.423096,691.950623 258.963806,703.065979 240.788864,710.058228 
	C219.434525,718.273682 197.886978,719.005127 175.755630,712.864990 
	C147.813293,705.112610 126.775467,688.733032 112.031586,664.069458 
	C102.195198,647.615173 96.491966,629.564087 92.762489,610.871765 
	C87.887222,586.436646 86.514732,561.699707 87.048515,536.848694 
	C87.609970,510.709259 90.132408,484.732025 93.551758,458.811584 
	C96.333572,437.724030 99.899567,416.766205 104.038345,395.935303 
	C108.529549,373.330658 113.441719,350.798126 119.256035,328.464569 
	C123.640984,311.621399 127.182060,294.547394 132.610062,277.991333 
	C145.274658,239.362671 169.697632,210.373016 205.332642,190.246063 
M743.399048,680.006836 
	C767.932190,683.586670 788.882263,676.688660 805.636414,658.248840 
	C816.144836,646.683289 822.448792,632.757019 826.736206,617.890442 
	C831.596497,601.037476 833.744446,583.772705 835.092957,566.294373 
	C837.180725,539.235413 834.866333,512.392273 832.169739,485.571564 
	C830.440979,468.378052 827.816589,451.278381 825.024841,434.200470 
	C820.920166,409.090515 815.790833,384.194366 810.268860,359.386292 
	C805.983337,340.132935 800.559814,321.135803 795.933105,301.954620 
	C790.384338,278.950470 780.213806,258.497742 763.205933,241.830627 
	C744.211731,223.217178 721.611572,211.574646 695.117615,208.095581 
	C677.102295,205.729904 659.111389,206.095291 641.938354,212.607117 
	C617.928833,221.711227 598.166443,236.801208 581.624023,256.479828 
	C572.398743,267.454102 560.345032,274.103577 545.580994,274.156006 
	C502.424347,274.309296 459.266754,274.195862 416.110107,274.347534 
	C399.041260,274.407532 385.602020,267.250000 374.898438,254.446030 
	C369.315796,247.767899 363.221375,241.655701 356.485107,236.171295 
	C340.277557,222.975784 322.692261,212.044235 301.797729,208.647736 
	C270.981445,203.638412 241.790848,208.746841 215.274399,225.950714 
	C190.111206,242.276627 173.235748,264.830780 164.990936,293.755127 
	C160.892792,308.132233 157.318069,322.641388 153.675201,337.138428 
	C148.040131,359.563507 142.805527,382.088715 138.538864,404.794006 
	C133.815643,429.928864 129.605682,455.156982 126.801437,480.631866 
	C124.485146,501.673981 122.850594,522.769714 122.655266,543.856873 
	C122.461746,564.749390 124.070396,585.666626 128.786743,606.236511 
	C132.048187,620.461060 136.514908,634.098999 144.020691,646.657166 
	C161.056885,675.160828 193.051041,687.633057 224.586823,677.563293 
	C244.068176,671.342590 259.018494,658.336487 272.451721,643.463074 
	C291.592773,622.269958 305.815521,597.817322 318.992828,572.687866 
	C323.885193,563.357971 329.604492,560.377686 340.146820,561.438782 
	C369.902222,564.433594 395.737854,555.893494 417.217255,534.914612 
	C422.171143,530.076111 427.888824,527.865356 434.746552,527.880066 
	C463.740387,527.942444 492.735321,528.023499 521.727905,527.820251 
	C529.697632,527.764404 536.156189,530.094788 541.971313,535.674561 
	C563.625854,556.452698 589.662537,564.614258 619.333862,561.429504 
	C628.449707,560.451050 634.773682,564.129272 638.990906,571.988281 
	C642.296692,578.148926 645.455383,584.392761 648.909058,590.469116 
	C663.624573,616.360107 679.914185,641.073120 703.239380,660.230957 
	C714.804077,669.729492 727.472107,677.249390 743.399048,680.006836 
z"/>
<path fill="#000000" opacity="1.000000" stroke="none" 
	d="
M303.704010,432.748627 
	C315.629303,417.835144 330.933228,409.553162 349.548553,409.206696 
	C372.780121,408.774292 391.209412,418.785461 403.320038,438.767059 
	C422.818848,470.938660 407.708740,512.841492 372.364777,526.131897 
	C339.407867,538.524658 302.235107,519.011902 293.478271,484.934204 
	C288.588135,465.903900 292.304260,448.817230 303.704010,432.748627 
M329.608521,458.216400 
	C324.302948,468.294800 325.987915,477.856628 333.235138,485.891968 
	C339.697876,493.057556 348.084442,496.099915 358.057648,493.120300 
	C368.517548,489.995270 377.094482,479.920532 376.433655,469.677429 
	C375.721375,458.637024 370.434418,448.790863 357.045654,445.532196 
	C346.440613,442.951080 335.645294,447.641724 329.608521,458.216400 
z"/>
<path fill="#000000" opacity="1.000000" stroke="none" 
	d="
M661.515747,494.368469 
	C650.506165,517.331970 632.009033,529.187866 607.457031,529.736633 
	C580.878906,530.330627 556.780090,513.869690 548.999939,486.163544 
	C539.018555,450.618591 560.706055,417.079681 595.098328,410.289978 
	C635.365540,402.340454 670.597351,435.701263 666.677551,474.833527 
	C666.003418,481.563446 664.498108,487.926971 661.515747,494.368469 
M631.702698,471.184479 
	C631.776123,460.860107 627.790771,452.624268 618.473755,447.840240 
	C609.700745,443.335632 600.808105,443.726440 592.528015,449.434967 
	C583.957520,455.343750 580.237122,466.315002 583.190186,476.265381 
	C586.839172,488.560638 596.318542,494.157410 606.297668,494.225281 
	C617.403809,494.300812 628.609253,488.336761 631.702698,471.184479 
z"/>
<path fill="#000000" opacity="1.000000" stroke="none" 
	d="
M251.021118,282.347961 
	C260.190125,268.549133 275.278992,271.227875 281.876831,282.304047 
	C283.905853,285.710297 284.149323,289.582886 284.235321,293.399902 
	C284.366577,299.226898 284.376007,305.062042 284.223969,310.888153 
	C284.127502,314.583801 285.700562,315.882111 289.312073,315.785645 
	C295.970245,315.607849 302.637177,315.690308 309.299561,315.755676 
	C319.121216,315.852020 326.374695,323.133240 326.760101,333.188141 
	C327.115295,342.456207 320.336823,350.360046 310.818115,351.025970 
	C303.854279,351.513123 296.832825,351.322052 289.840973,351.203339 
	C286.249634,351.142365 284.468475,351.805115 284.610687,356.146973 
	C284.849640,363.441132 284.719940,370.821472 283.854462,378.059021 
	C282.757294,387.233826 276.287659,393.026764 267.695587,393.694336 
	C259.743896,394.312164 252.131134,389.142059 249.495087,380.908051 
	C247.843445,375.748901 248.861969,370.320160 248.808640,365.019165 
	C248.669861,351.225555 248.752594,351.228271 234.779236,351.227631 
	C231.114761,351.227448 227.445343,351.314484 223.786758,351.159515 
	C213.509369,350.724213 205.464493,342.487946 205.797318,332.862152 
	C206.127640,323.309235 214.238297,315.792328 224.330505,315.734009 
	C230.993301,315.695496 237.657806,315.637115 244.318817,315.749329 
	C247.523315,315.803284 248.819870,314.496033 248.764542,311.299927 
	C248.654968,304.972137 248.829788,298.639374 248.716736,292.311676 
	C248.655685,288.894257 249.202499,285.692535 251.021118,282.347961 
z"/>
<path fill="#000000" opacity="1.000000" stroke="none" 
	d="
M499.154297,365.331543 
	C502.718262,361.003326 506.893524,358.638245 512.208984,358.323608 
	C519.336182,357.901764 526.470581,357.358124 533.554443,358.627747 
	C542.223389,360.181458 548.294006,367.528229 548.230530,376.163086 
	C548.167114,384.783417 541.927063,392.193420 533.206970,393.369385 
	C525.451782,394.415192 517.563599,394.543396 509.855591,393.264465 
	C498.802521,391.430511 490.791321,377.952789 499.154297,365.331543 
z"/>
<path fill="#000000" opacity="1.000000" stroke="none" 
	d="
M412.421997,384.285309 
	C407.265533,370.531830 413.435547,360.052582 427.650177,358.367340 
	C434.405334,357.566437 441.260895,357.482635 448.037994,358.630463 
	C456.683197,360.094666 462.325043,366.827759 462.367126,375.655823 
	C462.410370,384.725006 456.784027,392.033447 448.105011,393.323212 
	C440.357178,394.474640 432.486328,394.361816 424.719666,393.335938 
	C419.291168,392.618958 415.314545,389.380249 412.421997,384.285309 
z"/>
<path fill="#000000" opacity="1.000000" stroke="none" 
	d="
M717.725464,339.116119 
	C714.666626,329.391022 719.110596,320.449707 728.617004,316.645142 
	C736.461670,313.505646 746.028198,317.382965 750.194153,325.390381 
	C754.403198,333.480469 751.567200,343.684265 743.760254,348.539307 
	C735.961548,353.389282 725.862610,351.416870 720.183838,343.841492 
	C719.203369,342.533569 718.597473,340.944885 717.725464,339.116119 
z"/>
<path fill="#000000" opacity="1.000000" stroke="none" 
	d="
M708.525757,369.766174 
	C711.733887,379.322266 707.270142,388.842773 698.222168,392.459076 
	C689.594666,395.907349 680.052795,391.924377 675.705505,383.060211 
	C671.841248,375.180847 675.429688,364.737701 683.526550,360.299011 
	C691.710815,355.812408 701.918457,358.594818 707.036072,366.735443 
	C707.563110,367.573730 707.918640,368.519897 708.525757,369.766174 
z"/>
<path fill="#000000" opacity="1.000000" stroke="none" 
	d="
M708.476318,297.144531 
	C701.702209,311.012543 685.794250,312.725739 677.363892,300.833557 
	C673.152832,294.893250 673.524841,285.724609 678.210938,279.955322 
	C683.406860,273.558319 691.071777,271.448242 698.147217,274.467010 
	C706.156250,277.884094 710.620056,285.075165 709.545166,292.925659 
	C709.366516,294.230194 708.947266,295.501740 708.476318,297.144531 
z"/>
<path fill="#000000" opacity="1.000000" stroke="none" 
	d="
M634.609619,323.871765 
	C642.687256,314.090302 653.497253,312.928009 661.701233,320.668488 
	C669.140381,327.687317 668.808105,339.820862 660.984741,346.834076 
	C654.929688,352.262085 645.635559,352.639954 638.866516,347.733490 
	C632.167358,342.877625 629.860901,333.985260 633.344299,326.437500 
	C633.691833,325.684570 634.047668,324.935547 634.609619,323.871765 
z"/>
</svg>