<?xml version="1.0" standalone="no"?>
<!DOCTYPE svg PUBLIC "-//W3C//DTD SVG 20010904//EN"
 "http://www.w3.org/TR/2001/REC-SVG-20010904/DTD/svg10.dtd">
<svg version="1.0" xmlns="http://www.w3.org/2000/svg"
 width="163.000000pt" height="145.000000pt" viewBox="0 0 163.000000 145.000000"
 preserveAspectRatio="xMidYMid meet">

<g transform="translate(0.000000,145.000000) scale(0.100000,-0.100000)"
fill="#000000" stroke="none">
<path d="M230 1407 c-49 -16 -133 -102 -148 -153 -17 -57 -17 -990 0 -1045 16
-55 73 -118 132 -145 l51 -24 535 0 535 0 50 24 c58 27 107 78 126 133 11 30
14 143 14 538 l0 501 -26 49 c-28 56 -91 109 -147 125 -52 14 -1075 12 -1122
-3z m1146 -44 c51 -27 90 -72 104 -121 8 -25 10 -199 8 -534 l-3 -496 -30 -44
c-17 -23 -49 -53 -70 -65 l-40 -23 -543 0 c-589 0 -579 -1 -635 56 -65 65 -62
39 -62 594 l0 505 27 47 c29 48 78 86 132 99 17 4 265 7 551 6 515 -2 520 -2
561 -24z"/>
<path d="M874 1241 c-27 -16 -34 -17 -55 -5 -58 32 -154 6 -192 -52 -16 -24
-34 -36 -66 -44 -57 -14 -107 -64 -117 -115 -4 -22 -17 -47 -29 -57 -29 -23
-55 -78 -55 -117 0 -51 35 -108 80 -131 31 -16 59 -20 134 -20 86 0 95 -2 101
-20 3 -11 3 -24 0 -30 -3 -5 -1 -10 4 -10 22 0 11 -39 -11 -43 -20 -4 -19 -4
5 -6 38 -2 36 -30 -4 -38 -17 -3 -27 -9 -22 -12 5 -3 12 -14 16 -23 5 -14 1
-18 -15 -18 -12 0 -19 -2 -16 -5 3 -3 29 -1 59 4 30 5 46 9 36 10 -15 1 -15 4
-5 21 11 17 24 20 90 20 l77 0 -1 -40 0 -39 -82 -4 -81 -3 83 -2 82 -2 0 -45
c0 -26 5 -45 11 -45 7 0 10 36 7 113 -3 103 -5 117 -30 154 -45 68 -90 83
-252 83 -82 0 -146 5 -159 11 -93 48 -109 149 -33 218 14 14 26 32 26 40 0 9
9 35 19 58 21 46 62 73 110 73 23 0 33 8 49 34 11 19 32 42 47 52 33 21 106
23 137 2 21 -14 25 -13 51 6 43 32 113 29 160 -7 25 -19 43 -26 60 -22 12 3
36 1 52 -5 35 -13 85 -58 85 -76 0 -7 20 -22 44 -33 58 -25 81 -61 81 -126 0
-27 6 -60 13 -72 18 -32 15 -91 -9 -153 -30 -80 -49 -101 -126 -140 -77 -40
-99 -72 -110 -159 -8 -66 12 -69 22 -3 12 82 32 111 94 138 90 40 115 71 152
187 20 61 19 100 -4 142 -6 11 -9 39 -8 62 4 62 -39 129 -96 150 -12 4 -32 23
-45 42 -29 42 -81 71 -130 71 -23 0 -51 9 -74 25 -46 31 -115 34 -160 6z m-84
-564 l45 -22 -64 -3 c-45 -2 -67 1 -72 10 -28 43 19 51 91 15z m69 -56 c6 -10
7 -21 4 -25 -3 -3 -1 -6 5 -6 7 0 12 -7 12 -15 0 -12 -16 -15 -80 -15 -44 0
-80 4 -80 9 0 5 -3 23 -6 40 l-6 31 70 0 c59 0 73 -3 81 -19z"/>
<path d="M763 603 c15 -2 37 -2 50 0 12 2 0 4 -28 4 -27 0 -38 -2 -22 -4z"/>
<path d="M920 1137 c0 -13 11 -40 25 -60 30 -45 24 -49 -70 -55 -83 -5 -152
18 -180 62 -18 27 -35 34 -35 15 0 -14 69 -84 90 -91 12 -5 10 -10 -10 -24
-56 -43 -143 -56 -190 -29 -30 17 -40 18 -40 5 0 -13 54 -40 81 -40 22 0 22
-1 -8 -32 -31 -32 -53 -75 -53 -104 0 -29 20 -13 30 25 12 45 54 85 120 114
25 11 61 31 80 46 28 21 47 26 97 28 58 1 62 0 53 -17 -6 -10 -10 -41 -10 -69
0 -56 -4 -58 -57 -36 -43 18 -43 18 -43 1 0 -15 49 -36 82 -36 11 0 32 -14 48
-32 30 -32 55 -32 32 0 -43 60 -51 112 -25 167 13 27 24 36 51 41 75 14 173
-45 192 -116 17 -62 8 -71 -62 -63 -50 5 -60 4 -56 -8 3 -8 22 -15 49 -17 24
-2 48 -7 54 -13 14 -14 -15 -55 -70 -97 -84 -64 -90 -77 -94 -213 -3 -104 -1
-119 13 -119 14 0 16 16 16 118 0 131 2 136 88 202 l43 33 33 -32 c29 -28 56
-40 56 -25 0 4 -16 21 -36 38 l-36 31 17 55 c10 30 31 69 47 86 28 30 52 89
42 106 -8 13 -24 -1 -24 -20 0 -9 -10 -33 -21 -52 l-22 -35 -22 51 c-14 31
-36 60 -56 74 -19 13 -35 25 -37 26 -9 6 20 43 38 49 11 3 20 13 20 20 0 9 -6
12 -17 8 -26 -9 -63 -44 -63 -60 0 -10 -12 -8 -52 7 -62 23 -68 29 -77 71 -8
39 -31 51 -31 16z"/>
<path d="M358 606 c-64 -34 -67 -44 -44 -111 11 -32 12 -41 2 -45 -7 -3 -28
-23 -47 -45 -18 -22 -24 -32 -13 -22 11 9 32 17 47 17 16 0 30 8 37 20 6 11
23 27 38 35 25 15 15 14 -24 -2 -14 -5 -16 -1 -12 20 3 15 2 24 -2 22 -4 -3
-10 4 -13 15 -4 15 2 24 21 35 15 8 23 14 19 15 -5 0 -17 -5 -28 -10 -11 -7
-19 -7 -19 -1 0 14 92 63 102 53 4 -4 9 -21 11 -38 2 -16 6 -35 10 -41 4 -7
-1 -14 -13 -18 -24 -8 -27 -45 -3 -45 9 0 26 9 38 20 22 21 84 38 86 24 1 -16
7 -39 14 -56 5 -13 0 -19 -18 -23 -21 -6 -24 -10 -17 -33 5 -19 12 -26 26 -24
24 4 44 30 37 48 -3 8 1 14 8 14 9 0 8 4 -3 13 -20 15 -33 57 -18 57 6 0 9 -4
6 -8 -2 -4 4 -13 15 -20 17 -11 19 -9 19 12 0 14 -5 28 -11 32 -8 4 -7 9 2 15
11 7 9 9 -7 9 -11 0 -29 7 -40 15 -19 14 -19 14 1 15 11 1 15 4 9 6 -6 3 -22
0 -35 -5 -13 -5 -18 -10 -11 -10 28 -2 11 -38 -22 -48 -19 -6 -37 -8 -40 -5
-14 13 -4 31 22 41 l27 11 -30 -5 c-29 -5 -31 -3 -43 40 -6 25 -15 44 -19 44
-5 -1 -34 -16 -65 -33z"/>
<path d="M618 633 c6 -2 18 -2 25 0 6 3 1 5 -13 5 -14 0 -19 -2 -12 -5z"/>
<path d="M568 623 c7 -3 16 -2 19 1 4 3 -2 6 -13 5 -11 0 -14 -3 -6 -6z"/>
<path d="M528 613 c7 -3 16 -2 19 1 4 3 -2 6 -13 5 -11 0 -14 -3 -6 -6z"/>
<path d="M608 583 c7 -3 16 -2 19 1 4 3 -2 6 -13 5 -11 0 -14 -3 -6 -6z"/>
<path d="M390 570 c-8 -5 -10 -10 -5 -10 6 0 17 5 25 10 8 5 11 10 5 10 -5 0
-17 -5 -25 -10z"/>
<path d="M390 520 c-8 -5 -10 -10 -5 -10 6 0 17 5 25 10 8 5 11 10 5 10 -5 0
-17 -5 -25 -10z"/>
<path d="M259 499 l-24 -20 28 17 c15 9 27 18 27 20 0 8 -8 4 -31 -17z"/>
<path d="M793 513 c9 -2 25 -2 35 0 9 3 1 5 -18 5 -19 0 -27 -2 -17 -5z"/>
<path d="M262 450 c-23 -17 -42 -33 -42 -36 0 -4 56 34 85 58 23 20 -6 5 -43
-22z"/>
<path d="M678 453 c6 -2 18 -2 25 0 6 3 1 5 -13 5 -14 0 -19 -2 -12 -5z"/>
<path d="M628 443 c7 -3 16 -2 19 1 4 3 -2 6 -13 5 -11 0 -14 -3 -6 -6z"/>
<path d="M410 425 c-14 -8 -20 -14 -15 -14 6 0 21 6 35 14 14 8 21 14 15 14
-5 0 -21 -6 -35 -14z"/>
<path d="M284 355 c-27 -19 -45 -35 -41 -35 7 0 63 38 92 62 24 21 -7 4 -51
-27z"/>
<path d="M420 380 c-8 -5 -10 -10 -5 -10 6 0 17 5 25 10 8 5 11 10 5 10 -5 0
-17 -5 -25 -10z"/>
<path d="M334 334 c-18 -14 -18 -15 4 -4 12 6 22 13 22 15 0 8 -5 6 -26 -11z"/>
<path d="M280 299 c-22 -18 -22 -19 -3 -10 12 6 25 16 28 21 9 15 3 12 -25
-11z"/>
</g>
</svg>
