<?xml version="1.0" standalone="no"?>
<!DOCTYPE svg PUBLIC "-//W3C//DTD SVG 20010904//EN"
 "http://www.w3.org/TR/2001/REC-SVG-20010904/DTD/svg10.dtd">
<svg version="1.0" xmlns="http://www.w3.org/2000/svg"
 width="260.000000pt" height="323.000000pt" viewBox="0 0 260.000000 323.000000"
 preserveAspectRatio="xMidYMid meet">

<g transform="translate(0.000000,323.000000) scale(0.100000,-0.100000)"
fill="#FFFFFF" stroke="none">
<path d="M94 3220 c-12 -4 -31 -21 -43 -36 l-21 -27 0 -1528 0 -1529 29 -32
29 -33 993 -3 994 -2 257 257 258 258 0 1307 0 1308 -29 32 -29 33 -1209 2
c-664 1 -1218 -2 -1229 -7z m2386 -470 l0 -370 -1170 0 -1170 0 0 370 0 370
1170 0 1170 0 0 -370z m-1700 -640 l0 -160 -320 0 -320 0 0 160 0 160 320 0
320 0 0 -160z m420 0 l0 -160 -160 0 -160 0 0 160 0 160 160 0 160 0 0 -160z
m430 0 l0 -160 -160 0 -160 0 0 160 0 160 160 0 160 0 0 -160z m430 0 l0 -160
-160 0 -160 0 0 160 0 160 160 0 160 0 0 -160z m420 0 l0 -160 -160 0 -160 0
0 160 0 160 160 0 160 0 0 -160z m-1700 -455 l0 -185 -320 0 -320 0 0 185 0
185 320 0 320 0 0 -185z m420 0 l0 -185 -160 0 -160 0 0 185 0 185 160 0 160
0 0 -185z m430 0 l0 -185 -160 0 -160 0 0 185 0 185 160 0 160 0 0 -185z m430
0 l0 -185 -160 0 -160 0 0 185 0 185 160 0 160 0 0 -185z m420 0 l0 -185 -160
0 -160 0 0 185 0 185 160 0 160 0 0 -185z m-1700 -480 l0 -185 -320 0 -320 0
0 185 0 185 320 0 320 0 0 -185z m420 0 l0 -185 -160 0 -160 0 0 185 0 185
160 0 160 0 0 -185z m430 0 l0 -185 -160 0 -160 0 0 185 0 185 160 0 160 0 0
-185z m430 0 l0 -185 -160 0 -160 0 0 185 0 185 160 0 160 0 0 -185z m420 0
l0 -185 -160 0 -160 0 0 185 0 185 160 0 160 0 0 -185z m-1700 -480 l0 -185
-320 0 -320 0 0 185 0 185 320 0 320 0 0 -185z m420 0 l0 -185 -160 0 -160 0
0 185 0 185 160 0 160 0 0 -185z m430 0 l0 -185 -160 0 -160 0 0 185 0 185
160 0 160 0 0 -185z m430 47 c0 -127 -2 -139 -21 -155 -11 -10 -25 -31 -31
-47 l-10 -30 -129 0 -129 0 0 185 0 185 160 0 160 0 0 -138z m420 8 l0 -130
-160 0 -160 0 0 130 0 130 160 0 160 0 0 -130z m-80 -243 c0 -1 -65 -67 -145
-147 l-145 -145 0 148 0 147 145 0 c80 0 145 -1 145 -3z m-1620 -237 l0 -130
-320 0 -320 0 0 130 0 130 320 0 320 0 0 -130z m420 0 l0 -130 -160 0 -160 0
0 130 0 130 160 0 160 0 0 -130z m430 0 l0 -130 -160 0 -160 0 0 130 0 130
160 0 160 0 0 -130z m370 0 l0 -130 -130 0 -130 0 0 130 0 130 130 0 130 0 0
-130z"/>
<path d="M390 2998 c-61 -31 -90 -77 -90 -142 0 -84 66 -156 144 -156 30 0 66
-32 66 -58 0 -24 -31 -52 -58 -52 -11 0 -34 11 -50 25 -74 62 -145 -11 -74
-77 78 -73 178 -73 245 1 44 49 55 103 32 157 -28 69 -64 95 -148 109 -45 7
-66 39 -48 74 19 34 56 37 99 7 47 -32 77 -33 97 -2 15 22 15 28 2 53 -18 34
-79 70 -133 78 -30 5 -50 1 -84 -17z"/>
<path d="M836 3010 c-41 -13 -94 -68 -106 -110 -13 -45 -13 -255 0 -299 13
-47 66 -99 112 -112 96 -25 198 50 198 145 0 27 -6 40 -25 52 -23 15 -27 15
-50 0 -14 -9 -25 -24 -25 -34 0 -28 -29 -62 -54 -62 -47 0 -56 26 -56 162 0
113 2 127 20 143 30 27 72 10 86 -35 6 -19 21 -40 33 -48 18 -13 24 -12 46 2
56 37 19 141 -65 184 -47 23 -67 26 -114 12z"/>
<path d="M1257 3006 c-49 -18 -64 -32 -88 -77 -16 -32 -19 -60 -19 -179 0
-162 12 -201 76 -241 78 -48 183 -19 224 62 17 33 20 58 20 181 0 129 -2 147
-23 182 -38 68 -118 98 -190 72z m87 -112 c13 -12 16 -40 16 -144 0 -136 -8
-160 -50 -160 -42 0 -50 24 -50 160 0 136 8 160 50 160 10 0 26 -7 34 -16z"/>
<path d="M1602 3004 c-22 -15 -22 -18 -22 -254 l0 -240 25 -16 c23 -15 27 -15
50 0 22 15 24 23 27 108 l3 93 32 3 c53 5 73 -24 73 -108 0 -57 4 -74 21 -91
22 -22 55 -19 77 9 19 25 15 150 -8 199 -19 42 -19 43 1 89 15 34 19 56 14 86
-9 52 -64 114 -113 128 -57 15 -154 12 -180 -6z m173 -114 c35 -39 -4 -95 -63
-88 -25 3 -27 7 -30 56 l-3 52 39 0 c26 0 45 -7 57 -20z"/>
<path d="M2020 3000 c-19 -19 -20 -33 -20 -248 0 -181 3 -232 14 -248 13 -17
29 -19 136 -22 140 -4 170 6 170 58 0 41 -23 50 -124 50 l-86 0 0 55 0 55 64
0 c68 0 96 14 96 50 0 36 -28 50 -96 50 l-64 0 0 55 0 55 86 0 c101 0 124 9
124 50 0 50 -28 60 -162 60 -105 0 -120 -2 -138 -20z"/>
</g>
</svg>
