<?xml version="1.0" standalone="no"?>
<!DOCTYPE svg PUBLIC "-//W3C//DTD SVG 20010904//EN"
 "http://www.w3.org/TR/2001/REC-SVG-20010904/DTD/svg10.dtd">
<svg version="1.0" xmlns="http://www.w3.org/2000/svg"
 width="264.000000pt" height="326.000000pt" viewBox="0 0 264.000000 326.000000"
 preserveAspectRatio="xMidYMid meet">

<g transform="translate(0.000000,326.000000) scale(0.100000,-0.100000)"
fill="#000000" stroke="none">
<path d="M1242 3221 c-93 -24 -185 -101 -223 -187 l-20 -44 -114 0 -115 0 0
-55 0 -55 -360 0 -360 0 0 -952 c0 -524 3 -1166 7 -1425 l6 -473 1264 0 1263
0 0 1425 0 1425 -360 0 -360 0 0 55 0 55 -115 0 -114 0 -20 44 c-27 63 -92
129 -156 161 -59 29 -164 41 -223 26z m185 -120 c38 -19 103 -85 103 -103 0
-5 -94 -8 -210 -8 -115 0 -210 3 -210 8 0 21 70 87 114 109 62 29 139 27 203
-6z m343 -271 l0 -60 -450 0 -450 0 0 60 0 60 450 0 450 0 0 -60z m-1000 -105
l0 -55 550 0 550 0 0 55 0 55 310 0 310 0 0 -1325 0 -1325 -1163 0 -1164 0 -6
128 c-4 70 -7 666 -7 1325 l0 1197 310 0 310 0 0 -55z"/>
<path d="M335 2416 c-20 -30 -17 -37 90 -191 l76 -110 -76 -3 c-67 -3 -77 -5
-91 -27 -15 -23 -15 -27 0 -50 16 -25 19 -25 150 -25 116 0 135 2 149 18 10
10 17 25 17 33 -1 8 -41 73 -90 144 l-88 130 73 3 c58 2 76 7 91 23 17 19 17
23 3 47 -15 27 -15 27 -151 30 -136 3 -137 2 -153 -22z"/>
<path d="M845 2421 c-77 -36 -135 -120 -135 -196 0 -71 55 -156 125 -192 38
-20 121 -21 160 -2 64 31 27 114 -39 89 -50 -19 -103 6 -132 62 -24 46 -17 77
26 120 38 39 43 40 90 36 58 -6 90 11 90 47 0 51 -107 72 -185 36z"/>
<path d="M1219 2412 c-36 -18 -64 -43 -84 -72 -26 -40 -30 -54 -30 -116 0 -60
4 -77 28 -112 15 -23 46 -54 70 -69 36 -23 53 -28 112 -28 59 0 76 5 112 28
24 15 55 46 70 69 24 36 28 52 28 114 0 64 -3 77 -30 116 -37 53 -120 98 -181
98 -26 0 -61 -10 -95 -28z m151 -87 c102 -53 60 -215 -55 -215 -38 0 -83 26
-100 60 -53 103 52 208 155 155z"/>
<path d="M1617 2422 c-15 -16 -17 -45 -17 -200 0 -191 5 -212 49 -212 22 0 51
31 51 53 0 23 3 22 92 -20 67 -31 82 -35 103 -25 25 12 33 44 17 68 -4 6 -38
27 -77 46 l-69 35 39 21 c22 12 56 29 75 40 l35 19 3 81 c4 112 3 112 -157
112 -111 0 -130 -2 -144 -18z m203 -97 c0 -8 -27 -28 -60 -45 l-60 -30 0 45 0
45 60 0 c46 0 60 -3 60 -15z"/>
<path d="M2007 2422 c-15 -16 -17 -45 -17 -199 0 -162 2 -182 18 -196 15 -14
42 -17 148 -17 140 0 154 5 154 50 0 43 -16 50 -122 50 l-98 0 0 30 c0 28 3
30 35 30 34 0 75 27 75 51 0 33 -22 49 -65 49 -45 0 -45 0 -45 35 l0 35 98 0
c106 0 122 7 122 50 0 45 -14 50 -155 50 -115 0 -134 -2 -148 -18z"/>
<path d="M320 1070 l0 -710 1000 0 1000 0 0 710 0 710 -1000 0 -1000 0 0 -710z
m340 440 l0 -170 -120 0 -120 0 0 170 0 170 120 0 120 0 0 -170z m890 0 l0
-170 -395 0 -395 0 0 170 0 170 395 0 395 0 0 -170z m330 0 l0 -170 -115 0
-115 0 0 170 0 170 115 0 115 0 0 -170z m340 0 l0 -170 -120 0 -120 0 0 170 0
170 120 0 120 0 0 -170z m-1560 -440 l0 -170 -120 0 -120 0 0 170 0 170 120 0
120 0 0 -170z m890 0 l0 -170 -395 0 -395 0 0 170 0 170 395 0 395 0 0 -170z
m330 0 l0 -170 -115 0 -115 0 0 170 0 170 115 0 115 0 0 -170z m340 0 l0 -170
-120 0 -120 0 0 170 0 170 120 0 120 0 0 -170z m-1560 -440 l0 -170 -120 0
-120 0 0 170 0 170 120 0 120 0 0 -170z m890 0 l0 -170 -395 0 -395 0 0 170 0
170 395 0 395 0 0 -170z m330 0 l0 -170 -115 0 -115 0 0 170 0 170 115 0 115
0 0 -170z m338 -2 l2 -168 -120 0 -120 0 0 170 0 171 118 -3 117 -3 3 -167z"/>
</g>
</svg>
