<svg version="1.1" id="Layer_1" xmlns="http://www.w3.org/2000/svg" xmlns:xlink="http://www.w3.org/1999/xlink" x="0px" y="0px"
	 width="100%" viewBox="0 0 526 634" enable-background="new 0 0 526 634" xml:space="preserve">
<path fill="#F7F7F7" opacity="1.000000" stroke="none" 
	d="
M1.000000,251.000000 
	C1.000000,167.333359 1.000000,84.166718 1.000000,1.000056 
	C176.333252,1.000037 351.666504,1.000037 526.999817,1.000019 
	C526.999878,212.333191 526.999878,423.666382 526.999939,634.999634 
	C351.666870,634.999756 176.333725,634.999756 1.000288,634.999878 
	C1.000000,507.166656 1.000000,379.333344 1.000000,251.000000 
M462.526978,327.500305 
	C462.526978,258.904755 462.526978,190.309189 462.526978,121.403831 
	C423.721497,121.403831 385.608643,121.403831 347.047119,121.403831 
	C347.047119,115.186378 347.047119,109.270004 347.047119,102.972313 
	C335.646484,102.972313 324.690186,102.883957 313.737091,103.032127 
	C310.865723,103.070969 309.486298,102.394463 308.409088,99.414383 
	C300.999054,78.914352 281.097870,65.131012 259.241943,65.006538 
	C237.275085,64.881439 217.067062,78.744774 209.586243,99.426704 
	C208.504303,102.417900 207.109848,103.068932 204.250824,103.031189 
	C193.298767,102.886620 182.343674,102.972717 170.945267,102.972717 
	C170.945267,109.280304 170.945267,115.197060 170.945267,121.605225 
	C132.274246,121.605225 94.050217,121.605225 56.504089,121.605225 
	C56.504089,273.665833 56.504089,425.222900 56.504089,576.712585 
	C192.406876,576.712585 327.301514,576.712585 462.527435,576.712585 
	C462.527435,493.776733 462.527435,411.138550 462.526978,327.500305 
z"/>
<path fill="#060606" opacity="1.000000" stroke="none" 
	d="
M462.527222,328.000305 
	C462.527435,411.138550 462.527435,493.776733 462.527435,576.712585 
	C327.301514,576.712585 192.406876,576.712585 56.504089,576.712585 
	C56.504089,425.222900 56.504089,273.665833 56.504089,121.605225 
	C94.050217,121.605225 132.274246,121.605225 170.945267,121.605225 
	C170.945267,115.197060 170.945267,109.280304 170.945267,102.972717 
	C182.343674,102.972717 193.298767,102.886620 204.250824,103.031189 
	C207.109848,103.068932 208.504303,102.417900 209.586243,99.426704 
	C217.067062,78.744774 237.275085,64.881439 259.241943,65.006538 
	C281.097870,65.131012 300.999054,78.914352 308.409088,99.414383 
	C309.486298,102.394463 310.865723,103.070969 313.737091,103.032127 
	C324.690186,102.883957 335.646484,102.972313 347.047119,102.972313 
	C347.047119,109.270004 347.047119,115.186378 347.047119,121.403831 
	C385.608643,121.403831 423.721497,121.403831 462.526978,121.403831 
	C462.526978,190.309189 462.526978,258.904755 462.527222,328.000305 
M262.500214,154.674286 
	C232.058426,154.674286 201.616638,154.674286 170.777313,154.674286 
	C170.777313,148.645096 170.777313,143.192215 170.777313,137.714630 
	C137.478378,137.714630 104.581856,137.714630 72.258095,137.714630 
	C72.258095,278.943726 72.258095,419.816711 72.258095,560.781067 
	C197.460236,560.781067 321.690460,560.781067 445.831635,560.781067 
	C445.831635,419.539398 445.831635,278.541595 445.831635,137.679672 
	C412.685883,137.679672 379.955750,137.679672 346.803223,137.679672 
	C346.803223,143.415619 346.803223,148.842682 346.803223,154.674286 
	C318.753418,154.674286 291.126831,154.674286 262.500214,154.674286 
M191.728271,138.604416 
	C238.091232,138.604416 284.454193,138.604416 330.699005,138.604416 
	C330.699005,131.609451 330.699005,125.362015 330.699005,119.198013 
	C282.668732,119.198013 234.953735,119.198013 186.910767,119.198013 
	C186.910767,124.898514 187.051361,130.363815 186.858261,135.817291 
	C186.741684,139.109528 188.826462,138.602249 191.728271,138.604416 
M276.495697,102.978020 
	C281.690369,102.978020 286.885040,102.978020 292.393280,102.978020 
	C286.665497,89.365211 272.556274,80.659111 257.711029,80.983864 
	C244.012238,81.283531 230.274292,90.547501 225.581970,102.978310 
	C242.329010,102.978310 258.913330,102.978310 276.495697,102.978020 
z"/>
<path fill="#F5F5F5" opacity="1.000000" stroke="none" 
	d="
M263.000244,154.674286 
	C291.126831,154.674286 318.753418,154.674286 346.803223,154.674286 
	C346.803223,148.842682 346.803223,143.415619 346.803223,137.679672 
	C379.955750,137.679672 412.685883,137.679672 445.831635,137.679672 
	C445.831635,278.541595 445.831635,419.539398 445.831635,560.781067 
	C321.690460,560.781067 197.460236,560.781067 72.258095,560.781067 
	C72.258095,419.816711 72.258095,278.943726 72.258095,137.714630 
	C104.581856,137.714630 137.478378,137.714630 170.777313,137.714630 
	C170.777313,143.192215 170.777313,148.645096 170.777313,154.674286 
	C201.616638,154.674286 232.058426,154.674286 263.000244,154.674286 
M418.350311,520.466919 
	C418.350311,446.076324 418.350311,371.685730 418.350311,297.337524 
	C311.775024,297.337524 205.768494,297.337524 99.790131,297.337524 
	C99.790131,373.067993 99.790131,448.457428 99.790131,524.121033 
	C101.580666,524.121033 103.067657,524.121033 104.554642,524.121033 
	C207.513657,524.121277 310.472656,524.121704 413.431671,524.120422 
	C414.597565,524.120422 415.912781,524.423584 416.880249,523.979492 
	C417.602356,523.648071 417.875305,522.337952 418.350311,520.466919 
M321.808197,248.916138 
	C329.175323,252.371140 336.481750,255.964554 343.932190,259.229462 
	C348.432831,261.201721 352.535431,259.954926 354.373688,256.314392 
	C356.229309,252.639572 355.658386,249.171234 352.422302,246.474609 
	C351.169067,245.430283 349.617462,244.708511 348.130646,243.986313 
	C342.271515,241.140335 336.384125,238.352615 329.659546,235.138062 
	C336.989471,231.369385 343.657837,228.384201 349.807037,224.563477 
	C352.305939,223.010834 354.896179,219.821701 355.304749,217.060532 
	C356.148743,211.356995 355.826874,205.424438 355.472534,199.617325 
	C355.168915,194.641464 352.291595,191.928131 347.439301,191.860199 
	C335.610718,191.694565 323.777008,191.695557 311.948090,191.844315 
	C306.990448,191.906662 303.907654,194.685303 303.859406,199.458908 
	C303.680969,217.118622 303.686829,234.781952 303.840179,252.442047 
	C303.880432,257.076477 307.139526,260.038147 311.329926,260.164795 
	C315.591553,260.293579 318.484772,257.642487 319.425964,252.979202 
	C319.731323,251.466171 320.461945,250.038986 321.808197,248.916138 
M225.997086,213.684235 
	C223.021179,221.801025 223.021881,229.904831 225.961380,238.047623 
	C230.926285,251.801132 245.061172,260.815247 260.505432,260.002808 
	C275.394348,259.219635 288.521606,248.250092 291.919800,233.752014 
	C295.314148,219.270386 288.562378,203.982880 275.944397,196.503769 
	C259.709015,186.880478 235.636520,191.661972 225.997086,213.684235 
M375.816376,260.272522 
	C387.305878,260.255157 398.797089,260.348328 410.283997,260.166901 
	C414.979828,260.092773 417.958160,257.046051 418.196686,252.855743 
	C418.438416,248.609100 415.872589,245.358658 411.314392,244.506546 
	C409.375946,244.144196 407.345551,244.203430 405.356415,244.195129 
	C397.772430,244.163483 390.188171,244.182373 382.604370,244.182373 
	C382.604370,240.387909 382.604370,237.307526 382.604370,233.887878 
	C385.869690,233.887878 388.870087,234.102798 391.827698,233.838486 
	C396.494629,233.421417 399.792786,229.800461 399.647064,225.661087 
	C399.498474,221.439896 396.120758,218.235504 391.347717,217.999725 
	C388.432098,217.855698 385.503571,217.973129 382.599976,217.973129 
	C382.599976,214.173492 382.599976,211.085236 382.599976,207.580307 
	C387.186127,207.580307 391.490479,207.582169 395.794830,207.579803 
	C400.290863,207.577332 404.793091,207.718399 409.281342,207.528793 
	C414.944031,207.289551 418.239838,204.223907 418.247711,199.557556 
	C418.255585,194.878418 414.907715,191.751755 409.266205,191.686890 
	C398.110718,191.558609 386.951843,191.560028 375.796173,191.679321 
	C369.511810,191.746521 366.502747,194.537964 366.441315,200.793274 
	C366.276245,217.610260 366.379974,234.429947 366.392395,251.248566 
	C366.395752,255.794373 369.246521,260.506287 375.816376,260.272522 
M150.442032,248.543137 
	C141.315063,235.010803 132.188080,221.478470 122.600037,207.262512 
	C130.303452,207.262512 136.944260,207.444016 143.569443,207.200668 
	C148.225800,207.029633 151.166016,203.890762 151.296249,199.718918 
	C151.428909,195.469727 148.764221,191.892212 144.101089,191.768326 
	C131.635162,191.437119 119.142647,191.317139 106.685539,191.780701 
	C100.573776,192.008133 97.891708,198.123627 100.798859,203.598724 
	C101.573997,205.058578 102.572296,206.403275 103.506050,207.775040 
	C111.608704,219.678329 119.719994,231.575745 128.313416,244.186157 
	C121.579796,244.186157 115.660919,244.126434 109.743767,244.202316 
	C103.333885,244.284500 99.763321,247.158905 99.680237,252.130478 
	C99.596077,257.165710 103.117386,260.104370 109.483055,260.132446 
	C120.303925,260.180176 131.125458,260.194519 141.946136,260.127228 
	C149.189713,260.082184 151.886093,256.703979 150.442032,248.543137 
M164.446213,238.892502 
	C166.025375,241.420502 167.377884,244.128769 169.221405,246.446487 
	C179.214035,259.009521 194.254333,263.071777 207.347626,256.897583 
	C211.749908,254.821686 213.587311,250.909210 212.110306,246.756180 
	C210.649902,242.649826 206.736557,240.834534 201.958237,242.074081 
	C201.320358,242.239563 200.727707,242.572708 200.095459,242.767685 
	C192.577774,245.085983 186.047241,242.531952 180.749847,235.214523 
	C176.417099,229.229584 176.467514,221.784470 181.044174,215.772369 
	C186.058014,209.185989 192.337830,205.608948 200.914337,207.899811 
	C201.550842,208.069824 202.233521,208.065323 202.894089,208.147247 
	C208.048782,208.786514 211.201538,206.869080 212.375107,202.379440 
	C213.472137,198.182617 211.301834,194.486359 206.494553,192.954636 
	C193.514999,188.819061 182.032303,191.939835 172.551147,201.291565 
	C162.068512,211.631088 158.619568,223.999741 164.446213,238.892502 
z"/>
<path fill="#F2F2F2" opacity="1.000000" stroke="none" 
	d="
M191.255875,138.604538 
	C188.826462,138.602249 186.741684,139.109528 186.858261,135.817291 
	C187.051361,130.363815 186.910767,124.898514 186.910767,119.198013 
	C234.953735,119.198013 282.668732,119.198013 330.699005,119.198013 
	C330.699005,125.362015 330.699005,131.609451 330.699005,138.604416 
	C284.454193,138.604416 238.091232,138.604416 191.255875,138.604538 
z"/>
<path fill="#F4F4F4" opacity="1.000000" stroke="none" 
	d="
M275.996643,102.978165 
	C258.913330,102.978310 242.329010,102.978310 225.581970,102.978310 
	C230.274292,90.547501 244.012238,81.283531 257.711029,80.983864 
	C272.556274,80.659111 286.665497,89.365211 292.393280,102.978020 
	C286.885040,102.978020 281.690369,102.978020 275.996643,102.978165 
z"/>
<path fill="#030303" opacity="1.000000" stroke="none" 
	d="
M418.349304,520.965332 
	C417.875305,522.337952 417.602356,523.648071 416.880249,523.979492 
	C415.912781,524.423584 414.597565,524.120422 413.431671,524.120422 
	C310.472656,524.121704 207.513657,524.121277 104.554642,524.121033 
	C103.067657,524.121033 101.580666,524.121033 99.790131,524.121033 
	C99.790131,448.457428 99.790131,373.067993 99.790131,297.337524 
	C205.768494,297.337524 311.775024,297.337524 418.350311,297.337524 
	C418.350311,371.685730 418.350311,446.076324 418.349304,520.965332 
M168.870316,408.499969 
	C168.870316,418.277557 168.870316,428.055176 168.870316,437.884796 
	C211.348663,437.884796 253.362427,437.884796 295.461731,437.884796 
	C295.461731,419.481018 295.461731,401.412598 295.461731,383.283722 
	C253.154434,383.283722 211.115570,383.283722 168.869949,383.283722 
	C168.869949,391.549927 168.869949,399.524933 168.870316,408.499969 
M244.500000,367.007843 
	C261.439301,367.007843 278.378601,367.007843 295.440186,367.007843 
	C295.440186,348.777252 295.440186,331.052094 295.440186,313.349548 
	C253.099609,313.349548 211.049667,313.349548 169.220749,313.349548 
	C169.220749,331.405792 169.220749,349.132507 169.220749,367.008240 
	C194.214691,367.008240 218.857346,367.008240 244.500000,367.007843 
M243.500092,454.201294 
	C218.752258,454.201294 194.004410,454.201294 169.140472,454.201294 
	C169.140472,472.437775 169.140472,490.149414 169.140472,507.819275 
	C211.413834,507.819275 253.412048,507.819275 295.323364,507.819275 
	C295.323364,489.781311 295.323364,472.087891 295.323364,454.201660 
	C278.109406,454.201660 261.304749,454.201660 243.500092,454.201294 
M118.745277,438.227539 
	C130.015457,438.227539 141.285645,438.227539 152.686218,438.227539 
	C152.686218,419.571777 152.686218,401.489471 152.686218,383.253174 
	C140.235107,383.253174 128.007614,383.253174 115.399048,383.253174 
	C115.399048,400.986694 115.368423,418.454742 115.500641,435.921539 
	C115.506493,436.694977 116.997536,437.457123 118.745277,438.227539 
M115.390045,345.499603 
	C115.390045,352.589722 115.390045,359.679840 115.390045,366.722229 
	C128.240372,366.722229 140.351151,366.722229 152.652405,366.722229 
	C152.652405,348.766571 152.652405,331.040649 152.652405,313.274841 
	C140.169464,313.274841 127.946136,313.274841 115.389877,313.274841 
	C115.389877,323.887177 115.389877,334.193420 115.390045,345.499603 
M142.478195,508.169128 
	C145.892776,508.169128 149.307358,508.169128 152.680725,508.169128 
	C152.680725,489.857025 152.680725,472.277496 152.680725,454.488525 
	C140.250137,454.488525 128.051422,454.488525 115.720863,454.488525 
	C115.720863,472.488220 115.720863,490.188934 115.720863,508.169128 
	C124.529030,508.169128 133.005890,508.169128 142.478195,508.169128 
M311.673340,435.480133 
	C312.292969,436.389313 312.901978,438.082886 313.533752,438.091400 
	C325.273773,438.249878 337.016510,438.207642 348.773315,438.207642 
	C348.773315,419.514191 348.773315,401.434082 348.773315,383.272858 
	C336.320038,383.272858 324.089081,383.272858 311.671814,383.272858 
	C311.671814,400.527802 311.671814,417.503235 311.673340,435.480133 
M364.974426,411.500000 
	C364.974426,420.279572 364.974426,429.059143 364.974426,437.898804 
	C377.615662,437.898804 389.814240,437.898804 402.026031,437.898804 
	C402.026031,419.512665 402.026031,401.445709 402.026031,383.292297 
	C389.593567,383.292297 377.384979,383.292297 364.974457,383.292297 
	C364.974457,392.560486 364.974457,401.530243 364.974426,411.500000 
M348.271820,313.041382 
	C336.160645,313.041382 324.049469,313.041382 311.977356,313.041382 
	C311.977356,331.200592 311.977356,348.915741 311.977356,366.747864 
	C324.371948,366.747864 336.458557,366.747864 348.934814,366.747864 
	C348.934814,348.952484 348.934814,331.348541 348.271820,313.041382 
M383.500183,313.022339 
	C377.418152,313.022339 371.336090,313.022339 365.312317,313.022339 
	C365.312317,331.330872 365.312317,349.030029 365.312317,366.733612 
	C377.812408,366.733612 390.038330,366.733612 402.150055,366.733612 
	C402.150055,348.752136 402.150055,331.046692 402.150055,313.022278 
	C396.087616,313.022278 390.293549,313.022278 383.500183,313.022339 
M348.996338,498.472656 
	C348.996338,483.763916 348.996338,469.055206 348.996338,454.505585 
	C336.134705,454.505585 324.060486,454.505585 311.991394,454.505585 
	C311.991394,472.506500 311.991394,490.201813 311.991394,507.981018 
	C324.391876,507.981018 336.467255,507.981018 348.996399,507.981018 
	C348.996399,505.028961 348.996399,502.246918 348.996338,498.472656 
M402.250885,470.501923 
	C402.250885,465.225464 402.250885,459.949005 402.250885,454.520569 
	C389.578888,454.520569 377.391479,454.520569 365.271057,454.520569 
	C365.271057,472.549042 365.271057,490.257324 365.271057,507.780701 
	C377.768738,507.780701 389.964050,507.780701 402.250702,507.780701 
	C402.250702,495.435608 402.250702,483.468536 402.250885,470.501923 
z"/>
<path fill="#030303" opacity="1.000000" stroke="none" 
	d="
M321.403107,248.744339 
	C320.461945,250.038986 319.731323,251.466171 319.425964,252.979202 
	C318.484772,257.642487 315.591553,260.293579 311.329926,260.164795 
	C307.139526,260.038147 303.880432,257.076477 303.840179,252.442047 
	C303.686829,234.781952 303.680969,217.118622 303.859406,199.458908 
	C303.907654,194.685303 306.990448,191.906662 311.948090,191.844315 
	C323.777008,191.695557 335.610718,191.694565 347.439301,191.860199 
	C352.291595,191.928131 355.168915,194.641464 355.472534,199.617325 
	C355.826874,205.424438 356.148743,211.356995 355.304749,217.060532 
	C354.896179,219.821701 352.305939,223.010834 349.807037,224.563477 
	C343.657837,228.384201 336.989471,231.369385 329.659546,235.138062 
	C336.384125,238.352615 342.271515,241.140335 348.130646,243.986313 
	C349.617462,244.708511 351.169067,245.430283 352.422302,246.474609 
	C355.658386,249.171234 356.229309,252.639572 354.373688,256.314392 
	C352.535431,259.954926 348.432831,261.201721 343.932190,259.229462 
	C336.481750,255.964554 329.175323,252.371140 321.403107,248.744339 
M324.788849,207.304764 
	C323.185730,207.382690 321.582611,207.460632 319.909058,207.541977 
	C319.909058,212.448212 319.909058,216.984299 319.909058,221.930725 
	C325.942932,218.835297 331.629333,216.125168 337.070404,212.989441 
	C338.533722,212.146118 339.251038,210.008362 340.310822,208.464813 
	C339.917511,208.078125 339.524170,207.691422 339.130859,207.304733 
	C334.663147,207.304733 330.195435,207.304733 324.788849,207.304764 
z"/>
<path fill="#040404" opacity="1.000000" stroke="none" 
	d="
M226.092743,213.306244 
	C235.636520,191.661972 259.709015,186.880478 275.944397,196.503769 
	C288.562378,203.982880 295.314148,219.270386 291.919800,233.752014 
	C288.521606,248.250092 275.394348,259.219635 260.505432,260.002808 
	C245.061172,260.815247 230.926285,251.801132 225.961380,238.047623 
	C223.021881,229.904831 223.021179,221.801025 226.092743,213.306244 
M240.451721,220.450699 
	C236.252701,235.239548 249.690826,247.132309 263.154297,243.422241 
	C271.719818,241.061890 277.386902,233.328735 276.917114,224.902023 
	C276.449310,216.510880 270.135956,209.345795 261.919983,207.881607 
	C252.519943,206.206421 244.869080,210.482269 240.451721,220.450699 
z"/>
<path fill="#060606" opacity="1.000000" stroke="none" 
	d="
M375.359192,260.263916 
	C369.246521,260.506287 366.395752,255.794373 366.392395,251.248566 
	C366.379974,234.429947 366.276245,217.610260 366.441315,200.793274 
	C366.502747,194.537964 369.511810,191.746521 375.796173,191.679321 
	C386.951843,191.560028 398.110718,191.558609 409.266205,191.686890 
	C414.907715,191.751755 418.255585,194.878418 418.247711,199.557556 
	C418.239838,204.223907 414.944031,207.289551 409.281342,207.528793 
	C404.793091,207.718399 400.290863,207.577332 395.794830,207.579803 
	C391.490479,207.582169 387.186127,207.580307 382.599976,207.580307 
	C382.599976,211.085236 382.599976,214.173492 382.599976,217.973129 
	C385.503571,217.973129 388.432098,217.855698 391.347717,217.999725 
	C396.120758,218.235504 399.498474,221.439896 399.647064,225.661087 
	C399.792786,229.800461 396.494629,233.421417 391.827698,233.838486 
	C388.870087,234.102798 385.869690,233.887878 382.604370,233.887878 
	C382.604370,237.307526 382.604370,240.387909 382.604370,244.182373 
	C390.188171,244.182373 397.772430,244.163483 405.356415,244.195129 
	C407.345551,244.203430 409.375946,244.144196 411.314392,244.506546 
	C415.872589,245.358658 418.438416,248.609100 418.196686,252.855743 
	C417.958160,257.046051 414.979828,260.092773 410.283997,260.166901 
	C398.797089,260.348328 387.305878,260.255157 375.359192,260.263916 
z"/>
<path fill="#050505" opacity="1.000000" stroke="none" 
	d="
M150.645294,248.890320 
	C151.886093,256.703979 149.189713,260.082184 141.946136,260.127228 
	C131.125458,260.194519 120.303925,260.180176 109.483055,260.132446 
	C103.117386,260.104370 99.596077,257.165710 99.680237,252.130478 
	C99.763321,247.158905 103.333885,244.284500 109.743767,244.202316 
	C115.660919,244.126434 121.579796,244.186157 128.313416,244.186157 
	C119.719994,231.575745 111.608704,219.678329 103.506050,207.775040 
	C102.572296,206.403275 101.573997,205.058578 100.798859,203.598724 
	C97.891708,198.123627 100.573776,192.008133 106.685539,191.780701 
	C119.142647,191.317139 131.635162,191.437119 144.101089,191.768326 
	C148.764221,191.892212 151.428909,195.469727 151.296249,199.718918 
	C151.166016,203.890762 148.225800,207.029633 143.569443,207.200668 
	C136.944260,207.444016 130.303452,207.262512 122.600037,207.262512 
	C132.188080,221.478470 141.315063,235.010803 150.645294,248.890320 
z"/>
<path fill="#050505" opacity="1.000000" stroke="none" 
	d="
M164.274475,238.547134 
	C158.619568,223.999741 162.068512,211.631088 172.551147,201.291565 
	C182.032303,191.939835 193.514999,188.819061 206.494553,192.954636 
	C211.301834,194.486359 213.472137,198.182617 212.375107,202.379440 
	C211.201538,206.869080 208.048782,208.786514 202.894089,208.147247 
	C202.233521,208.065323 201.550842,208.069824 200.914337,207.899811 
	C192.337830,205.608948 186.058014,209.185989 181.044174,215.772369 
	C176.467514,221.784470 176.417099,229.229584 180.749847,235.214523 
	C186.047241,242.531952 192.577774,245.085983 200.095459,242.767685 
	C200.727707,242.572708 201.320358,242.239563 201.958237,242.074081 
	C206.736557,240.834534 210.649902,242.649826 212.110306,246.756180 
	C213.587311,250.909210 211.749908,254.821686 207.347626,256.897583 
	C194.254333,263.071777 179.214035,259.009521 169.221405,246.446487 
	C167.377884,244.128769 166.025375,241.420502 164.274475,238.547134 
z"/>
<path fill="#F6F6F6" opacity="1.000000" stroke="none" 
	d="
M168.870132,407.999939 
	C168.869949,399.524933 168.869949,391.549927 168.869949,383.283722 
	C211.115570,383.283722 253.154434,383.283722 295.461731,383.283722 
	C295.461731,401.412598 295.461731,419.481018 295.461731,437.884796 
	C253.362427,437.884796 211.348663,437.884796 168.870316,437.884796 
	C168.870316,428.055176 168.870316,418.277557 168.870132,407.999939 
z"/>
<path fill="#F6F6F6" opacity="1.000000" stroke="none" 
	d="
M244.000000,367.008057 
	C218.857346,367.008240 194.214691,367.008240 169.220749,367.008240 
	C169.220749,349.132507 169.220749,331.405792 169.220749,313.349548 
	C211.049667,313.349548 253.099609,313.349548 295.440186,313.349548 
	C295.440186,331.052094 295.440186,348.777252 295.440186,367.007843 
	C278.378601,367.007843 261.439301,367.007843 244.000000,367.008057 
z"/>
<path fill="#F5F5F5" opacity="1.000000" stroke="none" 
	d="
M244.000107,454.201477 
	C261.304749,454.201660 278.109406,454.201660 295.323364,454.201660 
	C295.323364,472.087891 295.323364,489.781311 295.323364,507.819275 
	C253.412048,507.819275 211.413834,507.819275 169.140472,507.819275 
	C169.140472,490.149414 169.140472,472.437775 169.140472,454.201294 
	C194.004410,454.201294 218.752258,454.201294 244.000107,454.201477 
z"/>
<path fill="#F3F3F3" opacity="1.000000" stroke="none" 
	d="
M118.271027,438.226013 
	C116.997536,437.457123 115.506493,436.694977 115.500641,435.921539 
	C115.368423,418.454742 115.399048,400.986694 115.399048,383.253174 
	C128.007614,383.253174 140.235107,383.253174 152.686218,383.253174 
	C152.686218,401.489471 152.686218,419.571777 152.686218,438.227539 
	C141.285645,438.227539 130.015457,438.227539 118.271027,438.226013 
z"/>
<path fill="#F3F3F3" opacity="1.000000" stroke="none" 
	d="
M115.389961,344.999634 
	C115.389877,334.193420 115.389877,323.887177 115.389877,313.274841 
	C127.946136,313.274841 140.169464,313.274841 152.652405,313.274841 
	C152.652405,331.040649 152.652405,348.766571 152.652405,366.722229 
	C140.351151,366.722229 128.240372,366.722229 115.390045,366.722229 
	C115.390045,359.679840 115.390045,352.589722 115.389961,344.999634 
z"/>
<path fill="#F2F2F2" opacity="1.000000" stroke="none" 
	d="
M141.980469,508.169128 
	C133.005890,508.169128 124.529030,508.169128 115.720863,508.169128 
	C115.720863,490.188934 115.720863,472.488220 115.720863,454.488525 
	C128.051422,454.488525 140.250137,454.488525 152.680725,454.488525 
	C152.680725,472.277496 152.680725,489.857025 152.680725,508.169128 
	C149.307358,508.169128 145.892776,508.169128 141.980469,508.169128 
z"/>
<path fill="#F7F7F7" opacity="1.000000" stroke="none" 
	d="
M311.672577,434.979370 
	C311.671814,417.503235 311.671814,400.527802 311.671814,383.272858 
	C324.089081,383.272858 336.320038,383.272858 348.773315,383.272858 
	C348.773315,401.434082 348.773315,419.514191 348.773315,438.207642 
	C337.016510,438.207642 325.273773,438.249878 313.533752,438.091400 
	C312.901978,438.082886 312.292969,436.389313 311.672577,434.979370 
z"/>
<path fill="#F7F7F7" opacity="1.000000" stroke="none" 
	d="
M364.974426,411.000000 
	C364.974457,401.530243 364.974457,392.560486 364.974457,383.292297 
	C377.384979,383.292297 389.593567,383.292297 402.026031,383.292297 
	C402.026031,401.445709 402.026031,419.512665 402.026031,437.898804 
	C389.814240,437.898804 377.615662,437.898804 364.974426,437.898804 
	C364.974426,429.059143 364.974426,420.279572 364.974426,411.000000 
z"/>
<path fill="#F7F7F7" opacity="1.000000" stroke="none" 
	d="
M348.603333,313.393005 
	C348.934814,331.348541 348.934814,348.952484 348.934814,366.747864 
	C336.458557,366.747864 324.371948,366.747864 311.977356,366.747864 
	C311.977356,348.915741 311.977356,331.200592 311.977356,313.041382 
	C324.049469,313.041382 336.160645,313.041382 348.603333,313.393005 
z"/>
<path fill="#F6F6F6" opacity="1.000000" stroke="none" 
	d="
M383.999847,313.022308 
	C390.293549,313.022278 396.087616,313.022278 402.150055,313.022278 
	C402.150055,331.046692 402.150055,348.752136 402.150055,366.733612 
	C390.038330,366.733612 377.812408,366.733612 365.312317,366.733612 
	C365.312317,349.030029 365.312317,331.330872 365.312317,313.022339 
	C371.336090,313.022339 377.418152,313.022339 383.999847,313.022308 
z"/>
<path fill="#F6F6F6" opacity="1.000000" stroke="none" 
	d="
M348.996368,498.968750 
	C348.996399,502.246918 348.996399,505.028961 348.996399,507.981018 
	C336.467255,507.981018 324.391876,507.981018 311.991394,507.981018 
	C311.991394,490.201813 311.991394,472.506500 311.991394,454.505585 
	C324.060486,454.505585 336.134705,454.505585 348.996338,454.505585 
	C348.996338,469.055206 348.996338,483.763916 348.996368,498.968750 
z"/>
<path fill="#F6F6F6" opacity="1.000000" stroke="none" 
	d="
M402.250793,471.001678 
	C402.250702,483.468536 402.250702,495.435608 402.250702,507.780701 
	C389.964050,507.780701 377.768738,507.780701 365.271057,507.780701 
	C365.271057,490.257324 365.271057,472.549042 365.271057,454.520569 
	C377.391479,454.520569 389.578888,454.520569 402.250885,454.520569 
	C402.250885,459.949005 402.250885,465.225464 402.250793,471.001678 
z"/>
<path fill="#E8E8E8" opacity="1.000000" stroke="none" 
	d="
M325.258301,207.304749 
	C330.195435,207.304733 334.663147,207.304733 339.130859,207.304733 
	C339.524170,207.691422 339.917511,208.078125 340.310822,208.464813 
	C339.251038,210.008362 338.533722,212.146118 337.070404,212.989441 
	C331.629333,216.125168 325.942932,218.835297 319.909058,221.930725 
	C319.909058,216.984299 319.909058,212.448212 319.909058,207.541977 
	C321.582611,207.460632 323.185730,207.382690 325.258301,207.304749 
z"/>
<path fill="#F4F4F4" opacity="1.000000" stroke="none" 
	d="
M240.614288,220.074280 
	C244.869080,210.482269 252.519943,206.206421 261.919983,207.881607 
	C270.135956,209.345795 276.449310,216.510880 276.917114,224.902023 
	C277.386902,233.328735 271.719818,241.061890 263.154297,243.422241 
	C249.690826,247.132309 236.252701,235.239548 240.614288,220.074280 
z"/>
</svg>